<svg height="64.81516858131961" width="370.18518518518516" style="width: 370.185px; height: 64.8152px; position: absolute; top: 50%; left: 50%; transform: translate(-50%, -50%) scale(1); z-index: 0; cursor: pointer; overflow: visible;"><defs id="SvgjsDefs1001"></defs><g id="SvgjsG1007" featurekey="symbolFeature-0" transform="matrix(1.1449106992140934,0,0,1.1449106992140934,-4.22965908234456,-4.229228338868799)" fill="#111111"><g xmlns="http://www.w3.org/2000/svg"><path d="M14.5939,45.1635l4.2426,4.2426L17.4223,50.82,13.18,46.5777ZM3.9872,55.77a1,1,0,0,0,0,1.4142l2.8285,2.8284a1,1,0,0,0,1.4142,0l7.7782-7.7781-4.2427-4.2427Zm49.4975-19.799a23.0949,23.0949,0,0,1-12.4421,6.5414c-.0287.0061-17.5,2.1871-17.5,2.1871l-3.2923,3.2923-4.2426-4.2426L19.3,40.4571s2.1811-17.471,2.1872-17.5a23.0949,23.0949,0,0,1,6.5414-12.4421c8.188-8.1881,20.5593-9.1393,27.5772-2.1214S61.6727,27.7831,53.4847,35.9711Zm-.8709-5.1136-.5432-.5433-1.4143,1.4143.6776.6775C51.79,31.9036,52.2193,31.3884,52.6138,30.8575ZM49.92,33.82l-.6776-.6777-1.4142,1.4143.5433.5432C48.9021,34.7056,49.4172,34.2764,49.92,33.82ZM31.5662,41.6889a15.415,15.415,0,0,1-9.2551-9.2552l-1.0076,8.1257,2.1371,2.1371ZM27.1284,18.4868l.9005-.9-.2688-.2688C27.5313,17.7021,27.327,18.0938,27.1284,18.4868ZM28.9,15.6288l.5433.5433,1.4142-1.4142L30.18,14.08C29.7235,14.5827,29.2943,15.0978,28.9,15.6288Zm2.6941-2.9627.6776.6776,1.4142-1.4143-.5432-.5432C32.6115,11.7807,32.0964,12.21,31.5939,12.6661ZM40.39,8.0535,39.3427,9.101l1.4141,1.4143L42.1711,9.101l-1.17-1.17C40.7971,7.9666,40.594,8.01,40.39,8.0535Zm5.8113-.1545L45,9.101l1.4142,1.4143L48.4359,8.493A13.028,13.028,0,0,0,46.2015,7.899Zm4.17,1.4869-2.5435,2.5435,1.4142,1.4142,2.7849-2.7849A11.6655,11.6655,0,0,0,50.3714,9.3859Zm3.07,2.5871-2.7849,2.7849,1.4143,1.4142,2.5435-2.5435A11.6524,11.6524,0,0,0,53.4412,11.973ZM37.9262,38.8017l.0042,0-.002-.002Zm-1.412-1.4164L35.1,35.9711l-2.0222,2.0222a13.0177,13.0177,0,0,0,2.2343.594Zm19.555-14.3861-1.17-1.17-1.4143,1.4143,1.4143,1.4141L55.9465,23.61C55.99,23.406,56.0334,23.2029,56.0692,22.9992Zm-2.5845-2.5845-1.4141-1.4142-1.4143,1.4142,1.4143,1.4142ZM29.4431,27.4858l1.4143-1.4142-1.4143-1.4143-1.4142,1.4143Zm-2.8284,0-1.202,1.202a13.0164,13.0164,0,0,0,.594,2.2344L28.0289,28.9Zm1.4142-4.2426L26.6147,21.829l-1.0476,1.0475c-.0435.2038-.0869.4069-.1226.6106l1.17,1.17ZM46.4137,21.829l1.4142-1.4143-1.4142-1.4142L45,20.4147Zm-2.8284,0L42.171,23.2432l1.4143,1.4142L45,23.2432ZM45,17.5863l-1.4142-1.4142L42.171,17.5863l1.4143,1.4142Zm-4.2427,1.4142-1.4142,1.4142,1.4142,1.4142,1.4142-1.4142Zm-2.8284,5.6568,1.4142-1.4141-1.4142-1.4143-1.4142,1.4143Zm-2.8284,0-1.4142,1.4142L35.1,27.4858l1.4142-1.4142Zm4.2427-7.071-1.4143-1.4142-1.4142,1.4142,1.4142,1.4142ZM35.1,19.0005l-1.4143,1.4142L35.1,21.829l1.4142-1.4143Zm-2.8285,2.8284-1.4141,1.4142,1.4142,1.4142,1.4142-1.4141ZM30.8573,28.9l1.4142,1.4142L33.6857,28.9l-1.4142-1.4142Zm2.8284,2.8285L35.1,33.1427l1.4142-1.4142L35.1,30.3142Zm4.2428-1.4143L39.3427,28.9l-1.4143-1.4142L36.5142,28.9Zm2.8283-2.8284,1.4143-1.4142-1.4143-1.4143-1.4142,1.4143ZM42.171,28.9l1.4143,1.4142L45,28.9l-1.4142-1.4142Zm4.2427-1.4142,1.4142-1.4142-1.4142-1.4143L45,26.0716Zm2.8284-2.8285,1.4142-1.4141-1.4142-1.4143-1.4142,1.4143Zm1.4143-7.071-1.4143-1.4142-1.4142,1.4142,1.4142,1.4142Zm-2.8285-2.8284-1.4142-1.4143L45,14.7579l1.4142,1.4142ZM45,11.9294l-1.4142-1.4142L42.171,11.9294l1.4143,1.4143Zm-4.2427,1.4142-1.4142,1.4143,1.4142,1.4142,1.4143-1.4142Zm-1.4141-1.4142-1.4143-1.4141-1.4142,1.4141,1.4142,1.4143ZM35.1,13.3437l-1.4142,1.4142L35.1,16.1721l1.4142-1.4142Zm-2.8285,2.8284-1.4141,1.4142,1.4141,1.4142,1.4143-1.4142Zm-2.8284,2.8284-1.4142,1.4142,1.4143,1.4142,1.4142-1.4142ZM25.1985,26.07l0,.0042.0022-.0022ZM26.9,32.8577a11.6526,11.6526,0,0,0,1.1728,1.6557l2.785-2.785-1.4143-1.4142Zm2.587,3.07A11.6607,11.6607,0,0,0,31.1423,37.1l2.5435-2.5435-1.4143-1.4143Zm8.4418.0435,1.4142-1.4142-1.4142-1.4143-1.4142,1.4143Zm2.8284-2.8285,1.4142-1.4141-1.4142-1.4143-1.4141,1.4142Zm1.4143,1.4142,1.4142,1.4143L45,34.5569l-1.4142-1.4143Zm4.2426-1.4142,1.4142-1.4141-1.4142-1.4143L45,31.7285Zm2.8284-2.8284L50.6563,28.9l-1.4142-1.4142L47.8279,28.9Zm2.8285-2.8284,1.4141-1.4142-1.4141-1.4143-1.4143,1.4143Zm4.2448-7.0733-.0022.0022.002.002Zm-.8084-4.8484-2.0223,2.0222,1.4143,1.4142,1.202-1.202A13.0371,13.0371,0,0,0,55.507,15.5641ZM43.5875,7.6846l-.0042,0,.002.002ZM36,9.6148c-.393.1987-.7845.4028-1.1692.6317l.2688.2688Zm5.1231,28.8181,1.0475-1.0476-1.4142-1.4142-1.4142,1.4142,1.17,1.17C40.7166,38.52,40.92,38.4765,41.1235,38.4329Zm4.39-1.5614c.393-.1986.7845-.4028,1.1691-.6316l-.2687-.2688Zm8.24-7.7027c.2289-.3847.433-.7762.6316-1.1692l-.9.9ZM16,13a3.0033,3.0033,0,0,0,3,3,2.9439,2.9439,0,0,0,.3311-.0334,6.9129,6.9129,0,0,0,0-5.9332A2.9439,2.9439,0,0,0,19,10,3.0033,3.0033,0,0,0,16,13ZM7,16a3,3,0,0,0,0-6,2.9439,2.9439,0,0,0-.3311.0334,6.9129,6.9129,0,0,0,0,5.9332A2.9439,2.9439,0,0,0,7,16Zm5-3a5.0087,5.0087,0,0,1-3.9924,4.8978,6.9792,6.9792,0,0,0,9.9848,0,5,5,0,0,1,0-9.7956,6.9792,6.9792,0,0,0-9.9848,0A5.0087,5.0087,0,0,1,12,13Z"></path></g></g><g id="SvgjsG1008" featurekey="nameFeature-0" transform="matrix(0.9285790235714458,0,0,0.9285790235714458,81.99140461894437,9.714213306533404)" fill="#111111"><path d="M16.72 10 q4.76 0 7.68 2.74 t2.92 7.3 t-2.88 7.28 t-7.72 2.72 l-7.64 0 l0 8.16 q0 0.56 -0.42 0.98 t-0.98 0.42 l-3.04 0 q-0.56 0 -0.98 -0.42 t-0.42 -0.98 l0 -12.4 q0 -0.56 0.42 -0.98 t0.98 -0.42 l11.84 0 q2.68 0 3.84 -1.16 q1.16 -1.04 1.16 -3.16 t-1.2 -3.26 t-3.8 -1.14 l-11.84 0 q-0.56 0 -0.98 -0.42 t-0.42 -0.98 l0 -2.88 q0 -0.56 0.42 -0.98 t0.98 -0.42 l12.08 0 z M46.120000000000005 10.84 l11.2 26.44 q0.2 0.32 0.2 0.68 q0 0.56 -0.4 0.98 t-1 0.42 l-3.32 0 q-0.44 0 -0.78 -0.22 t-0.5 -0.62 l-2.92 -6.88 l-11.32 0 l-2.88 6.88 q-0.16 0.4 -0.5 0.62 t-0.78 0.22 l-3.32 0 q-0.36 0 -0.68 -0.18 t-0.5 -0.46 t-0.22 -0.62 t0.12 -0.66 l11.28 -26.6 q0.16 -0.4 0.5 -0.62 t0.78 -0.22 l3.76 0 q0.44 0 0.78 0.22 t0.5 0.62 z M42.96 18.12 l-3.32 7.96 l6.64 0 z M78.64 11 q2.48 1.04 4.36 2.96 q4.16 4.24 4.16 10.72 t-4.16 10.72 q-1.88 1.92 -4.36 2.96 q-2.4 1 -5.08 1 l-11.2 0 q-0.56 0 -0.98 -0.42 t-0.42 -0.98 l0 -26.56 q0 -0.56 0.42 -0.98 t0.98 -0.42 l11.2 0 q2.6 0 5.08 1 z M66.75999999999999 15.64 l0 18.08 l6.68 0 q3.52 0 5.72 -2.58 t2.2 -6.46 t-2.2 -6.46 t-5.72 -2.58 l-6.68 0 z M112.91999999999999 10 q0.6 0 1 0.42 t0.4 0.98 l0 2.88 q0 0.56 -0.4 0.98 t-1 0.42 l-15.12 0 l0 6.12 l13.36 0 q0.6 0 1 0.42 t0.4 0.98 l0 2.92 q0 0.56 -0.4 0.98 t-1 0.42 l-13.36 0 l0 6.16 l15.12 0 q0.6 0 1 0.42 t0.4 0.98 l0 2.88 q0 0.56 -0.4 0.98 t-1 0.42 l-19.52 0 q-0.56 0 -0.98 -0.42 t-0.42 -0.98 l0 -26.56 q0 -0.56 0.42 -0.98 t0.98 -0.42 l19.52 0 z M138.04 33.68 q0.6 0 1 0.42 t0.4 0.98 l0 2.88 q0 0.56 -0.4 0.98 t-1 0.42 l-17.48 0 q-0.56 0 -0.98 -0.42 t-0.42 -0.98 l0 -26.56 q0 -0.56 0.42 -0.98 t0.98 -0.42 l3 0 q0.56 0 0.98 0.42 t0.42 0.98 l0 22.28 l13.08 0 z M162.15999999999997 28.04 l5.96 9.16 q0.2 0.32 0.22 0.72 t-0.16 0.72 t-0.52 0.52 t-0.7 0.2 l-3.6 0 q-0.36 0 -0.68 -0.18 t-0.48 -0.46 l-6 -9.56 l-7.08 0 l0 8.8 q0 0.56 -0.42 0.98 t-0.98 0.42 l-3 0 q-0.56 0 -0.98 -0.42 t-0.42 -0.98 l0 -26.56 q0 -0.56 0.42 -0.98 t0.98 -0.42 l12.72 0 q4.6 0 7.46 2.62 t2.86 7.1 q0 2.88 -1.26 4.94 t-3.7 3.1 q-0.16 0.08 -0.52 0.24 z M149.11999999999998 15.64 l0 7.88 l7.8 0 q3.44 0 4.68 -1.96 q0.4 -0.72 0.4 -1.84 q0 -1.88 -1.24 -2.96 q-1.36 -1.12 -3.68 -1.12 l-7.96 0 z M187.67999999999998 10.84 l11.2 26.44 q0.2 0.32 0.2 0.68 q0 0.56 -0.4 0.98 t-1 0.42 l-3.32 0 q-0.44 0 -0.78 -0.22 t-0.5 -0.62 l-2.92 -6.88 l-11.32 0 l-2.88 6.88 q-0.16 0.4 -0.5 0.62 t-0.78 0.22 l-3.32 0 q-0.36 0 -0.68 -0.18 t-0.5 -0.46 t-0.22 -0.62 t0.12 -0.66 l11.28 -26.6 q0.16 -0.4 0.5 -0.62 t0.78 -0.22 l3.76 0 q0.44 0 0.78 0.22 t0.5 0.62 z M184.51999999999998 18.12 l-3.32 7.96 l6.64 0 z M211.55999999999997 16.44 q-1.64 0.68 -2.68 1.92 q-2.24 2.48 -2.24 6.64 t2.24 6.68 q2.32 2.6 6.88 2.6 q2.4 0 4.22 -1.22 t2.7 -3.26 q0.16 -0.4 0.5 -0.62 t0.78 -0.22 l3.16 0 q0.32 0 0.64 0.14 t0.48 0.42 q0.44 0.64 0.2 1.28 q-1.48 4.2 -4.88 6.6 q-3.64 2.6 -8.48 2.6 q-6.44 0 -10.48 -4.44 q-3.76 -4.24 -3.76 -10.56 t3.76 -10.56 q4.04 -4.44 10.48 -4.44 q4.84 0 8.48 2.6 q3.36 2.4 4.88 6.6 q0.24 0.68 -0.2 1.28 q-0.16 0.28 -0.48 0.42 t-0.64 0.14 l-3.16 0 q-0.44 0 -0.78 -0.22 t-0.5 -0.62 q-0.88 -2.04 -2.7 -3.26 t-4.22 -1.22 q-2.56 0 -4.2 0.72 z M246.99999999999997 21.16 l11.24 16 q0.24 0.32 0.28 0.72 t-0.14 0.74 t-0.52 0.54 t-0.74 0.2 l-3.8 0 q-0.32 0 -0.62 -0.16 t-0.5 -0.44 l-9.48 -13.64 l-3.88 3.64 l0 9.2 q0 0.56 -0.42 0.98 t-0.98 0.42 l-3 0 q-0.56 0 -0.98 -0.42 t-0.42 -0.98 l0 -26.56 q0 -0.56 0.42 -0.98 t0.98 -0.42 l3 0 q0.56 0 0.98 0.42 t0.42 0.98 l0 9.52 l11.24 -10.56 q0.36 -0.36 0.96 -0.36 l4.24 0 q0.4 0 0.76 0.24 t0.52 0.64 t0.08 0.8 t-0.4 0.72 z M282.48 10 q0.6 0 1 0.42 t0.4 0.98 l0 2.88 q0 0.56 -0.4 0.98 t-1 0.42 l-15.12 0 l0 6.12 l13.36 0 q0.6 0 1 0.42 t0.4 0.98 l0 2.92 q0 0.56 -0.4 0.98 t-1 0.42 l-13.36 0 l0 6.16 l15.12 0 q0.6 0 1 0.42 t0.4 0.98 l0 2.88 q0 0.56 -0.4 0.98 t-1 0.42 l-19.52 0 q-0.56 0 -0.98 -0.42 t-0.42 -0.98 l0 -26.56 q0 -0.56 0.42 -0.98 t0.98 -0.42 l19.52 0 z M309 10 q0.56 0 0.96 0.42 t0.4 0.98 l0 2.88 q0 0.56 -0.4 0.98 t-0.96 0.42 l-7.88 0 l0 22.28 q0 0.56 -0.42 0.98 t-0.98 0.42 l-3 0 q-0.6 0 -1 -0.42 t-0.4 -0.98 l0 -22.28 l-7.88 0 q-0.56 0 -0.98 -0.42 t-0.42 -0.98 l0 -2.88 q0 -0.56 0.42 -0.98 t0.98 -0.42 l21.56 0 z"></path></g></svg>